<?xml version="1.0" standalone="no"?>
<!DOCTYPE svg PUBLIC "-//W3C//DTD SVG 20010904//EN"
 "http://www.w3.org/TR/2001/REC-SVG-20010904/DTD/svg10.dtd">
<svg version="1.0" xmlns="http://www.w3.org/2000/svg"
 width="500.000000pt" height="500.000000pt" viewBox="0 0 500.000000 500.000000"
 preserveAspectRatio="xMidYMid meet">

<g transform="translate(0.000000,500.000000) scale(0.100000,-0.100000)"
fill="#000000" stroke="none">
<path d="M0 2500 l0 -2500 2500 0 2500 0 0 2500 0 2500 -2500 0 -2500 0 0
-2500z m2862 1234 c263 -45 487 -138 683 -283 276 -205 450 -467 519 -782 3
-15 21 -37 44 -52 52 -34 100 -112 113 -183 16 -86 25 -102 61 -117 53 -22 99
-67 124 -122 21 -43 24 -65 24 -166 0 -106 -2 -120 -26 -165 -28 -53 -52 -84
-65 -84 -5 0 -4 12 2 27 12 32 -5 47 -35 31 -21 -11 -21 -10 -3 10 41 46 55
180 31 299 -6 31 -52 83 -74 83 -26 0 -30 -19 -31 -153 0 -67 -3 -115 -6 -107
-9 21 -42 54 -48 48 -3 -3 -8 -16 -10 -28 -12 -60 -15 -15 -15 196 0 219 -1
231 -24 279 -38 81 -84 109 -199 121 -112 11 -147 -8 -148 -84 0 -26 -3 -41
-6 -33 -5 11 -7 11 -14 0 -7 -11 -9 -11 -9 -1 0 7 -4 10 -10 7 -5 -3 -10 0
-11 7 0 7 -5 2 -12 -12 -11 -24 -11 -23 -14 20 -16 241 -45 353 -127 484 -123
197 -403 383 -666 440 -182 40 -196 44 -165 46 l30 2 -29 10 c-21 8 -25 13
-15 19 11 7 10 9 -4 9 -10 0 -15 5 -12 10 3 6 -4 10 -16 10 -12 0 -20 2 -17 5
6 6 185 -20 243 -35 155 -42 311 -108 415 -175 207 -135 356 -333 411 -547 11
-46 25 -87 30 -93 10 -10 128 -9 163 1 25 8 17 52 -28 168 -112 284 -344 521
-661 676 -203 100 -379 146 -597 156 -73 4 -140 10 -148 15 -11 6 -9 9 10 10
22 1 21 2 -8 10 -27 8 -30 12 -20 24 18 20 249 20 370 -1z m-154 -506 c21 -21
13 -31 -11 -15 -13 8 -32 17 -42 20 -14 3 -10 5 11 6 16 0 35 -4 42 -11z m523
-179 c20 -20 21 -27 14 -198 -4 -97 -11 -180 -16 -186 -6 -5 -9 -4 -9 4 0 20
-43 52 -52 38 -4 -7 -8 44 -8 113 0 69 -4 131 -9 139 -10 15 -97 27 -134 17
-13 -3 -28 -15 -33 -27 l-10 -22 -21 22 c-12 13 -26 20 -31 17 -15 -9 -21 40
-8 66 10 21 21 24 101 29 184 11 193 11 216 -12z m-1301 -371 c0 -5 4 -7 9 -4
24 15 30 -174 6 -194 -10 -8 -64 -14 -154 -18 -131 -4 -139 -4 -160 17 -25 25
-26 31 -7 57 12 16 29 19 129 22 l115 4 6 30 c3 17 6 45 6 63 0 17 3 34 6 37
8 9 44 -3 44 -14z m-950 -148 c0 -12 7 -20 18 -20 13 0 14 -2 4 -9 -8 -4 -13
-12 -13 -17 0 -5 -5 -27 -11 -49 -7 -28 -8 -156 -4 -424 7 -349 9 -388 26
-422 25 -48 71 -86 123 -99 61 -17 91 -33 95 -53 15 -78 -159 -54 -247 34 -44
44 -81 125 -88 192 -5 53 -6 53 -61 82 -103 54 -149 154 -139 306 3 47 12 102
21 122 23 57 75 115 123 138 44 21 63 49 63 93 0 27 48 126 61 126 5 0 8 -5 7
-11 -2 -6 4 -14 12 -16 9 -3 11 -1 5 4 -13 10 -16 43 -4 43 5 0 9 -9 9 -20z
m2508 -8 c2 -13 -2 -30 -8 -38 -16 -19 -60 -18 -60 1 0 8 -4 15 -9 15 -14 0
-42 30 -36 39 2 5 28 8 57 7 47 -1 53 -3 56 -24z m-1265 -49 c-13 -2 -33 -2
-45 0 -13 2 -3 4 22 4 25 0 35 -2 23 -4z m1167 -148 c133 -22 250 -62 440
-153 97 -46 120 -64 143 -108 32 -62 31 -101 -6 -224 -20 -63 -40 -134 -46
-157 -6 -23 -19 -59 -27 -80 -16 -36 -17 -37 -25 -15 -5 14 -13 20 -21 16 -8
-5 -9 -2 -5 10 4 10 3 15 -3 11 -6 -3 -10 -2 -10 2 0 5 -10 14 -21 22 -19 11
-21 11 -16 -1 3 -8 -1 -15 -8 -15 -11 0 -11 5 -3 20 7 15 6 23 -6 35 -13 14
-14 13 -9 -6 13 -52 -11 -12 -81 132 -41 85 -77 163 -80 174 -8 24 15 45 46
40 18 -2 36 -31 93 -143 43 -87 76 -140 85 -140 21 0 68 146 69 216 1 48 -3
59 -26 81 -29 27 -260 134 -348 160 -27 9 -69 21 -92 28 -76 23 -91 -2 -50
-87 13 -26 38 -77 55 -113 17 -35 28 -69 24 -74 -3 -6 -9 1 -13 14 -9 33 -48
108 -49 95 0 -5 -5 -3 -10 7 -13 21 -46 16 -42 -6 6 -34 -7 -13 -56 87 -59
120 -69 152 -52 172 16 19 32 19 150 0z m-2017 -163 c21 -23 14 -31 -53 -66
-88 -46 -105 -67 -104 -129 2 -63 53 -222 72 -222 15 0 39 39 109 178 45 89
74 116 101 95 20 -17 14 -40 -34 -139 -25 -52 -68 -143 -96 -204 -27 -60 -55
-116 -63 -124 -23 -23 -61 -6 -78 36 -31 79 -97 334 -97 376 0 88 43 146 140
190 67 31 82 32 103 9z m299 -325 c-6 -12 -22 -47 -35 -77 -14 -30 -48 -104
-77 -165 -29 -63 -50 -120 -48 -134 3 -21 17 -32 88 -63 l85 -38 163 0 c150 0
167 2 223 25 60 24 61 24 82 5 17 -16 23 -17 36 -7 14 11 15 10 1 -7 -50 -64
-151 -93 -350 -102 -167 -8 -200 0 -360 79 -69 34 -86 47 -89 67 -4 35 215
467 241 473 17 5 17 3 6 -11 -11 -13 -11 -14 1 -8 8 5 17 3 22 -5 7 -9 8 -4 4
16 l-5 30 11 -28 c8 -20 8 -35 1 -50z m128 -102 c0 6 7 1 15 -9 10 -13 15 -15
15 -6 0 7 3 10 6 7 7 -7 -58 -166 -84 -204 -23 -36 -72 -24 -72 17 0 24 82
180 91 174 5 -3 9 5 9 18 0 18 2 20 10 8 5 -8 10 -10 10 -5z"/>
<path d="M4335 1869 c-4 -6 -4 -13 -1 -16 3 -4 6 -1 6 5 0 7 4 12 10 12 5 0 7
-8 3 -17 -5 -14 -3 -15 7 -6 7 6 9 16 6 22 -9 14 -23 14 -31 0z"/>
<path d="M832 2214 c-41 -29 -52 -66 -52 -179 0 -68 5 -118 14 -140 15 -36 59
-71 76 -60 6 4 10 76 10 201 0 207 -1 211 -48 178z"/>
</g>
</svg>
